<svg xmlns="http://www.w3.org/2000/svg" viewBox="0 0 32 32" fill="none">
  <rect width="32" height="32" rx="4" fill="#FF6B00"/>
  <path d="M16 6 L17.2 6 L17.7 7.5 L18.5 7.8 A6 6 0 0 1 20.3 8.8 L21 8.3 L22 9.3 L21.5 10 A6 6 0 0 1 22.8 11.5 L24.3 11.2 L25 12.5 L23.5 13.3 A6 6 0 0 1 24.5 14.5 L24.5 16 L24.5 16.5 L24.5 17 A6 6 0 0 1 23.8 19 L24.8 20 L24.3 21.2 L22.8 20.8 A6 6 0 0 1 21.5 22.8 L22 23.8 L20.8 24.8 L20 24 A6 6 0 0 1 18.5 25 L18.5 25.5 L17.2 27 L16 27 L14.8 27 L14.3 25.5 L12.5 25 A6 6 0 0 1 11.8 24.3 L11 24.8 L10 23.8 L10.5 22.8 A6 6 0 0 1 9.2 21 L7.8 21.2 L7.2 20 L8.8 19.2 A6 6 0 0 1 7.5 17 L7.5 16.8 L6 16.5 L6 15.2 L7.5 15 A6 6 0 0 1 8.3 13 L7.2 12 L7.8 10.8 L9.3 11 A6 6 0 0 1 10.5 9.3 L10 8.3 L11.2 7.2 L12.2 7.8 A6 6 0 0 1 13.5 6.8 L13.5 5.5 L14.8 5 L16 5" stroke="#000000" stroke-width="0.8" stroke-linecap="round" fill="none"/>
  <circle cx="16" cy="16" r="4.5" stroke="#000000" stroke-width="0.8" fill="none"/>
  <line x1="12.5" y1="12.5" x2="19.5" y2="19.5" stroke="#000000" stroke-width="0.8" stroke-linecap="round"/>
  <circle cx="16" cy="16" r="1.2" fill="#000000"/>
</svg>